<svg width="24" height="24" fill="none" xmlns="http://www.w3.org/2000/svg"><g clip-path="url(#prefix__clip0_1_3)"><path d="M20.317 4.36a19.84 19.84 0 00-4.885-1.516.075.075 0 00-.078.038c-.211.374-.445.865-.609 1.249a18.285 18.285 0 00-5.487 0 12.387 12.387 0 00-.618-1.25.076.076 0 00-.078-.037c-1.687.291-3.33.801-4.885 1.517a.062.062 0 00-.032.027C.534 9.035-.319 13.57.099 18.047a.084.084 0 00.032.056 19.914 19.914 0 005.992 3.03.075.075 0 00.084-.029c.462-.63.873-1.294 1.227-1.994a.075.075 0 00-.042-.105 13.319 13.319 0 01-1.872-.892.075.075 0 01-.03-.099.077.077 0 01.022-.029c.127-.094.253-.193.373-.292a.076.076 0 01.076-.01c3.928 1.793 8.181 1.793 12.062 0a.078.078 0 01.079.01c.12.099.246.198.372.293a.077.077 0 01.031.065.076.076 0 01-.037.062c-.599.349-1.225.647-1.873.891a.075.075 0 00-.05.076c.001.01.004.021.009.03.36.698.773 1.364 1.226 1.994a.075.075 0 00.083.029 19.853 19.853 0 006.002-3.03.073.073 0 00.032-.056c.5-5.176-.839-9.673-3.55-13.659a.05.05 0 00-.03-.029zM8.021 15.322c-1.184 0-2.158-1.086-2.158-2.418 0-1.334.956-2.42 2.157-2.42 1.211 0 2.175 1.095 2.158 2.42 0 1.332-.956 2.418-2.158 2.418zm7.973 0c-1.181 0-2.156-1.086-2.156-2.418 0-1.334.955-2.42 2.157-2.42 1.21 0 2.176 1.095 2.156 2.42 0 1.332-.946 2.418-2.156 2.418z" fill="#C8CACB"/></g><defs><clipPath id="prefix__clip0_1_3"><path fill="none" d="M0 0h24v24H0z"/></clipPath></defs></svg>